<?xml version="1.0" encoding="UTF-8"?>
<svg id="Layer_2" data-name="Layer 2" xmlns="http://www.w3.org/2000/svg" viewBox="0 0 12 7">
  <defs>
    <style>
      .cls-1 {
        fill: #eb806c;
      }
    </style>
  </defs>
  <g id="Layer_1-2" data-name="Layer 1">
    <path class="cls-1" d="M6.71,6.71L11.71,1.71l-1.41-1.41-5,5,1.41,1.41ZM.29,1.71l5,5,1.41-1.41L1.71.29.29,1.71ZM11.71,1.71c.39-.39.39-1.02,0-1.41-.39-.39-1.02-.39-1.41,0l1.41,1.41ZM6,6l-.71.71c.39.39,1.02.39,1.41,0l-.71-.71ZM1.71.29C1.32-.1.68-.1.29.29-.1.68-.1,1.32.29,1.71L1.71.29Z"/>
  </g>
</svg>