<?xml version="1.0" encoding="UTF-8"?>
<svg id="Layer_2" data-name="Layer 2" xmlns="http://www.w3.org/2000/svg" viewBox="0 0 28 25">
  <defs>
    <style>
      .cls-1 {
        fill: #eb806c;
      }
    </style>
  </defs>
  <g id="Layer_1-2" data-name="Layer 1">
    <path class="cls-1" d="M2.33,22.73V7.39l7.54,7.34c1.1,1.06,2.58,1.66,4.13,1.66s3.03-.6,4.13-1.66l7.54-7.34v15.34H2.33ZM3.5,2.27h21c.31,0,.61.12.82.33.22.21.34.5.34.8v.76l-9.19,8.95c-.66.64-1.55,1-2.48,1s-1.82-.36-2.48-1L2.33,4.17v-.76c0-.3.12-.59.34-.8.22-.21.52-.33.82-.33ZM24.5,0H3.5c-.93,0-1.82.36-2.47,1C.37,1.64,0,2.51,0,3.41v21.59h28V3.41c0-.9-.37-1.77-1.03-2.41-.66-.64-1.55-1-2.47-1Z"/>
  </g>
</svg>