<?xml version="1.0" encoding="UTF-8"?>
<svg id="Layer_2" data-name="Layer 2" xmlns="http://www.w3.org/2000/svg" viewBox="0 0 29 29">
  <defs>
    <style>
      .cls-1 {
        fill: #f3eae5;
      }
    </style>
  </defs>
  <g id="Layer_1-2" data-name="Layer 1">
    <path class="cls-1" d="M26.73,25.6c0,.62-.51,1.13-1.13,1.13h-6.68v-8.27h3.63l.42-3.51h-4.05v-3.79c0-.97.73-1.7,1.7-1.7h2.55v-3.29c-.67-.09-1.96-.23-2.55-.23-1.32,0-2.65.56-3.63,1.53-1.02,1-1.58,2.31-1.58,3.69v3.78h-3.68v3.51h3.68v8.27H3.4c-.62,0-1.13-.51-1.13-1.13V3.4c0-.62.51-1.13,1.13-1.13h22.2c.62,0,1.13.51,1.13,1.13v22.2ZM25.6,0H3.4C1.52,0,0,1.52,0,3.4v22.2c0,1.87,1.52,3.4,3.4,3.4h22.2c1.87,0,3.4-1.52,3.4-3.4V3.4c0-1.87-1.52-3.4-3.4-3.4Z"/>
  </g>
</svg>