<?xml version="1.0" encoding="UTF-8"?>
<svg id="Layer_2" data-name="Layer 2" xmlns="http://www.w3.org/2000/svg" viewBox="0 0 28.39 28.39">
  <defs>
    <style>
      .cls-1 {
        fill: #f3eae5;
      }
    </style>
  </defs>
  <g id="Layer_1-2" data-name="Layer 1">
    <g>
      <path class="cls-1" d="M2.37,21.29c0,2.61,2.12,4.73,4.73,4.73h14.19c2.61,0,4.73-2.12,4.73-4.73V7.1c0-2.61-2.12-4.73-4.73-4.73H7.1c-2.61,0-4.73,2.12-4.73,4.73v14.2ZM7.1,0h14.19c3.9,0,7.1,3.19,7.1,7.1v14.2c0,3.9-3.19,7.1-7.1,7.1H7.1c-3.9,0-7.1-3.2-7.1-7.1V7.1C0,3.19,3.19,0,7.1,0Z"/>
      <circle class="cls-1" cx="6.5" cy="6.51" r="1.77"/>
      <path class="cls-1" d="M14.19,18.93c2.61,0,4.73-2.12,4.73-4.73s-2.12-4.73-4.73-4.73-4.73,2.12-4.73,4.73,2.12,4.73,4.73,4.73ZM14.19,7.1c3.92,0,7.1,3.18,7.1,7.1s-3.18,7.1-7.1,7.1-7.1-3.18-7.1-7.1,3.18-7.1,7.1-7.1Z"/>
    </g>
  </g>
</svg>