<?xml version="1.0" encoding="UTF-8"?>
<svg id="Layer_2" data-name="Layer 2" xmlns="http://www.w3.org/2000/svg" viewBox="0 0 29 29">
  <defs>
    <style>
      .cls-1 {
        fill: #f3eae5;
      }
    </style>
  </defs>
  <g id="Layer_1-2" data-name="Layer 1">
    <path class="cls-1" d="M25.6,2.27c.62,0,1.13.51,1.13,1.13v22.2c0,.62-.51,1.13-1.13,1.13H3.4c-.62,0-1.13-.51-1.13-1.13V3.4c0-.62.51-1.13,1.13-1.13h22.2ZM29,25.6V3.4c0-1.87-1.52-3.4-3.4-3.4H3.4C1.52,0,0,1.52,0,3.4v22.2c0,1.87,1.52,3.4,3.4,3.4h22.2c1.87,0,3.4-1.52,3.4-3.4ZM23.9,16.92c0-3.44-.73-5.98-4.74-5.98-1.93,0-3.22.96-3.75,1.97h0v-1.74h-3.85v12.8h3.85v-6.36c0-1.66.42-3.28,2.49-3.28s2.1,1.9,2.1,3.38v6.25h3.91v-7.04ZM9.46,7.08c0-1.28-1.04-2.32-2.32-2.32s-2.32,1.04-2.32,2.32,1.04,2.32,2.32,2.32,2.32-1.04,2.32-2.32ZM9.06,23.96h-3.96v-12.8h3.96v12.8Z"/>
  </g>
</svg>