<?xml version="1.0" encoding="UTF-8"?>
<svg id="Layer_2" data-name="Layer 2" xmlns="http://www.w3.org/2000/svg" viewBox="0 0 12 7">
  <defs>
    <style>
      .cls-1 {
        fill: #eb806c;
      }
    </style>
  </defs>
  <g id="Layer_1-2" data-name="Layer 1">
    <path class="cls-1" d="M5.29.29L.29,5.29l1.41,1.41L6.71,1.71l-1.41-1.41ZM11.71,5.29L6.71.29l-1.41,1.41,5,5,1.41-1.41ZM.29,5.29c-.39.39-.39,1.02,0,1.41.39.39,1.02.39,1.41,0l-1.41-1.41ZM6,1l.71-.71c-.39-.39-1.02-.39-1.41,0l.71.71ZM10.29,6.71c.39.39,1.02.39,1.41,0,.39-.39.39-1.02,0-1.41l-1.41,1.41Z"/>
  </g>
</svg>